{"title":"Independence Day Resurgence 2016 720p HC HDRip X264 AC3-VAiN","uid":15444148,"size":2992958979,"categoryP":"video","categoryS":"hd___movies","magnet":"?xt=urn:btih:fc77da18cd73e96af20f23bb793332db162119c1&amp;dn=Independence+Day+Resurgence+2016+720p+HC+HDRip+X264+AC3-VAiN&amp;tr=udp%3A%2F%2Ftracker.leechers-paradise.org%3A6969&amp;tr=udp%3A%2F%2Fzer0day.ch%3A1337&amp;tr=udp%3A%2F%2Fopen.demonii.com%3A1337&amp;tr=udp%3A%2F%2Ftracker.coppersurfer.tk%3A6969&amp;tr=udp%3A%2F%2Fexodus.desync.com%3A6969","seeders":12,"leechers":14,"uploader":"makintos13","files":3,"time":1469852304,"description":"Independence Day Resurgence 2016 720p HC HDRip X264 AC3-VAiN\r\n\r\n\r\nScreeens:\r\n \nhttps://imgmak.com/aaU\r\n \nhttps://imgmak.com/aa3\r\n \nhttps://imgmak.com/aaG\r\n \nhttps://imgmak.com/aaH\r\n \nhttps://imgmak.com/aav\r\n \nhttps://imgmak.com/aay\r\n\r\nP R E S E N T S . . . .\r\n\r\nIndependence.Day.Resurgence.2016.720p.HC.HDRip.X264.AC3-VAiN\r\n\r\niMDB........: http://www.imdb.com/title/tt1628841/\r\n\r\n\r\n\r\nT E C H N i C A L . i N F O . . .\r\n\r\nBasic Information\r\nFormat : Matroska\r\nFormat version : Version 4 / Version 2\r\nFile size : 2.77 GiB\r\nDuration : 1 h 59 min\r\nOverall bit rate mode : Variable\r\nOverall bit rate : 3 323 kb/s\r\nEncoded date : UTC 2016-07-29 22:19:23\r\nWriting application : mkvmerge v8.3.0 ('Over the Horizon') 64bit\r\nWriting library : libebml v1.3.1 + libmatroska v1.4.2\r\n\r\nVideo\r\nID : 1\r\nFormat : AVC\r\nFormat/Info : Advanced Video Codec\r\nFormat profile :   \r\nFormat settings, CABAC : Yes\r\nFormat settings, ReFrames : 3 frames\r\nCodec ID : V_MPEG4/ISO/AVC\r\nDuration : 1 h 59 min\r\nBit rate mode : Variable\r\nBit rate : 3 130 kb/s\r\nMaximum bit rate : 40.0 Mb/s\r\nWidth : 1 280 pixels\r\nHeight : 720 pixels\r\nDisplay aspect ratio : 16:9\r\nFrame rate mode : Constant\r\nFrame rate : 29.970 (30000/1001) FPS\r\nColor space : YUV\r\nChroma subsampling : 4:2:0\r\nBit depth : 8 bits\r\nScan type : Progressive\r\nBits/(Pixel*Frame) : 0.113\r\nStream size : 2.60 GiB (94%)\r\nWriting library : x264 core 148 r2692 64f4e24\r\nLanguage : English\r\nDefault : Yes\r\nForced : No\r\nColor range : Full\r\nColor primaries : BT.709\r\nTransfer characteristics : BT.709\r\nMatrix coefficients : BT.709\r\n\r\nAudio\r\nID : 2\r\nFormat : AC-3\r\nFormat/Info : Audio Coding 3\r\nMode extension : CM (complete main)\r\nFormat settings, Endianness : Big\r\nCodec ID : A_AC3\r\nDuration : 1 h 59 min\r\nBit rate mode : Constant\r\nBit rate : 192 kb/s\r\nChannel(s) : 2 channels\r\nChannel positions : Front: L R\r\nSampling rate : 44.1 kHz\r\nFrame rate : 28.711 FPS (1536 spf)\r\nCompression mode : Lossy\r\nStream size : 164 MiB (6%)\r\nLanguage : English\r\nDefault : Yes\r\nForced : No\r\n\r\n\r\n\r\nE N C O D E R S . N O T E S . . .\r\n\r\n\r\n\r\nSOURCE......: ViDEO...YUKINOMATI\r\n............: AUDiO...YUKINOMATI\r\nSAMPLE......: Yippers\r\nADDED NOTE..: got some HC Chinese subs took that nasty yellow tint out that them beginners left in cough cough... _ _ _, _ _ _ ... umm well all dem... work done well ya know... took the ol' poo shine and boom bam here we are","torrent":{"xt":"urn:btih:fc77da18cd73e96af20f23bb793332db162119c1","amp;dn":"Independence+Day+Resurgence+2016+720p+HC+HDRip+X264+AC3-VAiN","amp;tr":["udp%3A%2F%2Ftracker.leechers-paradise.org%3A6969","udp%3A%2F%2Fzer0day.ch%3A1337","udp%3A%2F%2Fopen.demonii.com%3A1337","udp%3A%2F%2Ftracker.coppersurfer.tk%3A6969","udp%3A%2F%2Fexodus.desync.com%3A6969"],"infoHash":"fc77da18cd73e96af20f23bb793332db162119c1","infoHashBuffer":{"type":"Buffer","data":[252,119,218,24,205,115,233,106,242,15,35,187,121,51,50,219,22,33,25,193]},"announce":[],"urlList":[]}}